# Blender v3.6.23 OBJ File: ''
# www.blender.org
mtllib sphere.mtl
o TexturedSphere_Sphere
v 0.000000 0.382683 -0.923880
v 0.000000 0.000000 -1.000000
v 0.000000 -0.382683 -0.923880
v 0.000000 -0.923880 -0.382683
v 0.146447 0.923880 -0.353553
v 0.270598 0.707107 -0.653281
v 0.353553 0.382683 -0.853553
v 0.382683 0.000000 -0.923880
v 0.353553 -0.382683 -0.853553
v 0.270598 -0.707107 -0.653281
v 0.146447 -0.923880 -0.353553
v 0.270598 0.923880 -0.270598
v 0.500000 0.707107 -0.500000
v 0.653282 0.382683 -0.653281
v 0.707107 0.000000 -0.707107
v 0.653282 -0.382683 -0.653281
v 0.500000 -0.707107 -0.500000
v 0.270598 -0.923880 -0.270598
v 0.353553 0.923880 -0.146447
v 0.653281 0.707107 -0.270598
v 0.853553 0.382683 -0.353553
v 0.923880 0.000000 -0.382683
v 0.853553 -0.382683 -0.353553
v 0.653281 -0.707107 -0.270598
v 0.353553 -0.923880 -0.146447
v 0.382683 0.923880 0.000000
v 0.707107 0.707107 0.000000
v 0.923880 0.382683 0.000000
v 1.000000 0.000000 0.000000
v 0.923880 -0.382683 0.000000
v 0.707107 -0.707107 0.000000
v 0.382683 -0.923880 0.000000
v 0.353553 0.923880 0.146447
v 0.653281 0.707107 0.270598
v 0.853553 0.382683 0.353554
v 0.923879 0.000000 0.382684
v 0.853553 -0.382683 0.353554
v 0.653281 -0.707107 0.270598
v 0.353553 -0.923880 0.146447
v 0.270598 0.923880 0.270598
v 0.500000 0.707107 0.500000
v 0.653281 0.382683 0.653282
v 0.707107 0.000000 0.707107
v 0.653281 -0.382683 0.653282
v 0.500000 -0.707107 0.500000
v 0.270598 -0.923880 0.270598
v 0.146447 0.923880 0.353553
v 0.270598 0.707107 0.653281
v 0.353553 0.382683 0.853553
v 0.382683 0.000000 0.923880
v 0.353553 -0.382683 0.853553
v 0.270598 -0.707107 0.653281
v 0.146447 -0.923880 0.353553
v -0.000000 0.923880 0.382683
v -0.000000 0.707107 0.707107
v -0.000000 0.382683 0.923879
v -0.000000 0.000000 1.000000
v -0.000000 -0.382683 0.923879
v -0.000000 -0.707107 0.707107
v -0.000000 -0.923880 0.382683
v 0.000000 -1.000000 0.000000
v 0.000000 1.000000 0.000000
v -0.146447 0.923880 0.353553
v -0.270598 0.707107 0.653281
v -0.353554 0.382683 0.853553
v -0.382684 0.000000 0.923879
v -0.353554 -0.382683 0.853553
v -0.270598 -0.707107 0.653281
v -0.146447 -0.923880 0.353553
v -0.270598 0.923880 0.270598
v -0.500000 0.707107 0.500000
v -0.653282 0.382683 0.653281
v -0.707107 0.000000 0.707106
v -0.653282 -0.382683 0.653281
v -0.500000 -0.707107 0.500000
v -0.270598 -0.923880 0.270598
v -0.353553 0.923880 0.146446
v -0.653281 0.707107 0.270598
v -0.853553 0.382683 0.353553
v -0.923880 0.000000 0.382683
v -0.853553 -0.382683 0.353553
v -0.653281 -0.707107 0.270598
v -0.353553 -0.923880 0.146446
v -0.382683 0.923880 -0.000000
v -0.707107 0.707107 -0.000000
v -0.923879 0.382683 -0.000000
v -1.000000 0.000000 -0.000001
v -0.923879 -0.382683 -0.000000
v -0.707107 -0.707107 -0.000000
v -0.382683 -0.923880 -0.000000
v -0.353553 0.923880 -0.146447
v -0.653281 0.707107 -0.270598
v -0.853553 0.382683 -0.353554
v -0.923879 0.000000 -0.382684
v -0.853553 -0.382683 -0.353554
v -0.653281 -0.707107 -0.270598
v -0.353553 -0.923880 -0.146447
v -0.270598 0.923880 -0.270598
v -0.500000 0.707107 -0.500000
v -0.653281 0.382683 -0.653282
v -0.707106 0.000000 -0.707107
v -0.653281 -0.382683 -0.653282
v -0.500000 -0.707107 -0.500000
v -0.270598 -0.923880 -0.270598
v -0.146446 0.923880 -0.353554
v -0.270598 0.707107 -0.653281
v -0.353553 0.382683 -0.853553
v -0.382683 0.000000 -0.923880
v -0.353553 -0.382683 -0.853553
v -0.270598 -0.707107 -0.653281
v -0.146446 -0.923880 -0.353554
v 0.000000 0.923880 -0.382683
v 0.000000 0.707107 -0.707107
v 0.000000 -0.707107 -0.707107
vt 0.750000 0.750000
vt 0.687500 0.625000
vt 0.750000 0.625000
vt 0.750000 0.875000
vt 0.718750 1.000000
vt 0.687500 0.875000
vt 0.718750 0.000000
vt 0.750000 0.125000
vt 0.687500 0.125000
vt 0.750000 0.250000
vt 0.687500 0.375000
vt 0.687500 0.250000
vt 0.687500 0.500000
vt 0.750000 0.500000
vt 0.687500 0.750000
vt 0.750000 0.375000
vt 0.625000 0.250000
vt 0.625000 0.500000
vt 0.625000 0.750000
vt 0.625000 0.125000
vt 0.625000 0.375000
vt 0.625000 0.625000
vt 0.656250 1.000000
vt 0.625000 0.875000
vt 0.656250 0.000000
vt 0.562500 0.125000
vt 0.562500 0.375000
vt 0.562500 0.625000
vt 0.593750 1.000000
vt 0.562500 0.875000
vt 0.593750 0.000000
vt 0.562500 0.250000
vt 0.562500 0.500000
vt 0.562500 0.750000
vt 0.500000 0.500000
vt 0.500000 0.375000
vt 0.500000 0.750000
vt 0.500000 0.625000
vt 0.531250 1.000000
vt 0.500000 0.875000
vt 0.531250 0.000000
vt 0.500000 0.125000
vt 0.500000 0.250000
vt 0.468750 0.000000
vt 0.437500 0.125000
vt 0.437500 0.250000
vt 0.437500 0.500000
vt 0.437500 0.875000
vt 0.437500 0.750000
vt 0.437500 0.375000
vt 0.437500 0.625000
vt 0.468750 1.000000
vt 0.375000 0.625000
vt 0.375000 0.500000
vt 0.375000 0.875000
vt 0.375000 0.750000
vt 0.375000 0.250000
vt 0.375000 0.125000
vt 0.375000 0.375000
vt 0.406250 1.000000
vt 0.406250 0.000000
vt 0.312500 0.125000
vt 0.312500 0.500000
vt 0.312500 0.375000
vt 0.312500 0.625000
vt 0.343750 1.000000
vt 0.312500 0.875000
vt 0.343750 0.000000
vt 0.312500 0.250000
vt 0.312500 0.750000
vt 0.250000 0.625000
vt 0.281250 1.000000
vt 0.250000 0.875000
vt 0.281250 0.000000
vt 0.250000 0.125000
vt 0.250000 0.250000
vt 0.250000 0.500000
vt 0.250000 0.750000
vt 0.250000 0.375000
vt 0.218750 0.000000
vt 0.187500 0.125000
vt 0.187500 0.375000
vt 0.187500 0.250000
vt 0.187500 0.500000
vt 0.187500 0.750000
vt 0.187500 0.625000
vt 0.218750 1.000000
vt 0.187500 0.875000
vt 0.125000 0.750000
vt 0.125000 0.250000
vt 0.125000 0.125000
vt 0.125000 0.375000
vt 0.125000 0.625000
vt 0.156250 1.000000
vt 0.125000 0.875000
vt 0.156250 0.000000
vt 0.125000 0.500000
vt 0.062500 0.125000
vt 0.062500 0.375000
vt 0.062500 0.625000
vt 0.093750 1.000000
vt 0.062500 0.875000
vt 0.093750 0.000000
vt 0.062500 0.250000
vt 0.062500 0.500000
vt 0.062500 0.750000
vt 0.031250 1.000000
vt 0.000000 0.875000
vt 0.031250 0.000000
vt 0.000000 0.125000
vt 0.000000 0.375000
vt 0.000000 0.250000
vt 0.000000 0.625000
vt 0.000000 0.500000
vt 0.000000 0.750000
vt 1.000000 0.375000
vt 0.937500 0.250000
vt 1.000000 0.250000
vt 1.000000 0.500000
vt 0.937500 0.625000
vt 0.937500 0.500000
vt 1.000000 0.875000
vt 0.937500 0.750000
vt 1.000000 0.750000
vt 0.937500 0.125000
vt 1.000000 0.125000
vt 0.937500 0.375000
vt 1.000000 0.625000
vt 0.968750 1.000000
vt 0.937500 0.875000
vt 0.968750 0.000000
vt 0.875000 0.125000
vt 0.875000 0.375000
vt 0.875000 0.625000
vt 0.906250 1.000000
vt 0.875000 0.875000
vt 0.906250 0.000000
vt 0.875000 0.250000
vt 0.875000 0.500000
vt 0.875000 0.750000
vt 0.812500 0.375000
vt 0.812500 0.625000
vt 0.843750 1.000000
vt 0.812500 0.875000
vt 0.843750 0.000000
vt 0.812500 0.125000
vt 0.812500 0.250000
vt 0.812500 0.500000
vt 0.812500 0.750000
vt 0.781250 0.000000
vt 0.781250 1.000000
vn 0.0000 0.6952 -0.7189
vn 0.3549 0.3744 -0.8567
vn -0.0000 0.3744 -0.9273
vn 0.0000 0.9152 -0.4031
vn 0.0000 1.0000 -0.0000
vn 0.1543 0.9152 -0.3724
vn 0.0000 -1.0000 0.0000
vn 0.0000 -0.9152 -0.4031
vn 0.1543 -0.9152 -0.3724
vn 0.0000 -0.6952 -0.7189
vn 0.3549 -0.3744 -0.8567
vn 0.2751 -0.6952 -0.6641
vn 0.3827 0.0000 -0.9239
vn 0.0000 0.0000 -1.0000
vn 0.2751 0.6952 -0.6641
vn 0.0000 -0.3744 -0.9273
vn 0.5083 -0.6952 -0.5083
vn 0.7071 0.0000 -0.7071
vn 0.5083 0.6952 -0.5083
vn 0.2850 -0.9152 -0.2850
vn 0.6557 -0.3744 -0.6557
vn 0.6557 0.3744 -0.6557
vn 0.2850 0.9152 -0.2850
vn 0.3724 -0.9152 -0.1543
vn 0.8567 -0.3744 -0.3549
vn 0.8567 0.3744 -0.3549
vn 0.3724 0.9152 -0.1543
vn 0.6641 -0.6952 -0.2751
vn 0.9239 0.0000 -0.3827
vn 0.6641 0.6952 -0.2751
vn 1.0000 -0.0000 0.0000
vn 0.9273 -0.3744 0.0000
vn 0.7189 0.6952 0.0000
vn 0.9273 0.3744 0.0000
vn 0.4031 0.9152 -0.0000
vn 0.4031 -0.9152 -0.0000
vn 0.7189 -0.6952 0.0000
vn 0.3724 -0.9152 0.1543
vn 0.6641 -0.6952 0.2751
vn 0.9239 0.0000 0.3827
vn 0.3724 0.9152 0.1543
vn 0.6641 0.6952 0.2751
vn 0.8567 -0.3744 0.3549
vn 0.8567 0.3744 0.3549
vn 0.6557 0.3744 0.6557
vn 0.7071 0.0000 0.7071
vn 0.2850 0.9152 0.2850
vn 0.5083 0.6952 0.5083
vn 0.5083 -0.6952 0.5083
vn 0.2850 -0.9152 0.2850
vn 0.6557 -0.3744 0.6557
vn 0.1543 -0.9152 0.3724
vn 0.3827 0.0000 0.9239
vn 0.3549 -0.3744 0.8567
vn 0.3549 0.3744 0.8567
vn 0.1543 0.9152 0.3724
vn 0.2751 -0.6952 0.6641
vn 0.2751 0.6952 0.6641
vn -0.0000 0.3744 0.9273
vn -0.0000 0.9152 0.4031
vn -0.0000 -0.9152 0.4031
vn -0.0000 -0.6952 0.7189
vn -0.0000 -0.0000 1.0000
vn -0.0000 0.6952 0.7189
vn -0.0000 -0.3744 0.9273
vn -0.1543 -0.9152 0.3724
vn -0.3549 -0.3744 0.8567
vn -0.2751 -0.6952 0.6641
vn -0.3827 -0.0000 0.9239
vn -0.2751 0.6952 0.6641
vn -0.3549 0.3744 0.8567
vn -0.1543 0.9152 0.3724
vn -0.5083 0.6952 0.5083
vn -0.5083 -0.6952 0.5083
vn -0.2850 -0.9152 0.2850
vn -0.6557 -0.3744 0.6557
vn -0.6557 0.3744 0.6557
vn -0.2850 0.9152 0.2850
vn -0.7071 0.0000 0.7071
vn -0.3724 -0.9152 0.1543
vn -0.8567 -0.3744 0.3549
vn -0.8567 0.3744 0.3549
vn -0.3724 0.9152 0.1543
vn -0.6641 -0.6952 0.2751
vn -0.9239 -0.0000 0.3827
vn -0.6641 0.6952 0.2751
vn -0.4031 0.9152 0.0000
vn -0.4031 -0.9152 -0.0000
vn -0.9273 -0.3744 -0.0000
vn -0.7189 -0.6952 -0.0000
vn -0.9273 0.3744 -0.0000
vn -1.0000 0.0000 -0.0000
vn -0.7189 0.6952 -0.0000
vn -0.6641 -0.6952 -0.2751
vn -0.8567 0.3744 -0.3549
vn -0.9239 -0.0000 -0.3827
vn -0.6641 0.6952 -0.2751
vn -0.3724 -0.9152 -0.1543
vn -0.8567 -0.3744 -0.3549
vn -0.3724 0.9152 -0.1543
vn -0.2850 -0.9152 -0.2850
vn -0.6557 -0.3744 -0.6557
vn -0.6557 0.3744 -0.6557
vn -0.2850 0.9152 -0.2850
vn -0.5083 -0.6952 -0.5083
vn -0.7071 0.0000 -0.7071
vn -0.5083 0.6952 -0.5083
vn -0.3549 -0.3744 -0.8567
vn -0.3549 0.3744 -0.8567
vn -0.1543 0.9152 -0.3724
vn -0.1543 -0.9152 -0.3724
vn -0.2751 -0.6952 -0.6641
vn -0.3827 0.0000 -0.9239
vn -0.2751 0.6952 -0.6641
usemtl CheckerPaint
s 1
f 113/1/1 7/2/2 1/3/3
f 112/4/4 62/5/5 5/6/6
f 61/7/7 4/8/8 11/9/9
f 114/10/10 9/11/11 10/12/12
f 1/3/3 8/13/13 2/14/14
f 113/1/1 5/6/6 6/15/15
f 114/10/10 11/9/9 4/8/8
f 2/14/14 9/11/11 3/16/16
f 9/11/11 17/17/17 10/12/12
f 7/2/2 15/18/18 8/13/13
f 5/6/6 13/19/19 6/15/15
f 10/12/12 18/20/20 11/9/9
f 9/11/11 15/18/18 16/21/21
f 6/15/15 14/22/22 7/2/2
f 5/6/6 62/23/5 12/24/23
f 61/25/7 11/9/9 18/20/20
f 17/17/17 25/26/24 18/20/20
f 15/18/18 23/27/25 16/21/21
f 13/19/19 21/28/26 14/22/22
f 12/24/23 62/29/5 19/30/27
f 61/31/7 18/20/20 25/26/24
f 17/17/17 23/27/25 24/32/28
f 15/18/18 21/28/26 22/33/29
f 12/24/23 20/34/30 13/19/19
f 23/27/25 29/35/31 30/36/32
f 21/28/26 27/37/33 28/38/34
f 19/30/27 62/39/5 26/40/35
f 61/41/7 25/26/24 32/42/36
f 23/27/25 31/43/37 24/32/28
f 21/28/26 29/35/31 22/33/29
f 19/30/27 27/37/33 20/34/30
f 24/32/28 32/42/36 25/26/24
f 61/44/7 32/42/36 39/45/38
f 30/36/32 38/46/39 31/43/37
f 28/38/34 36/47/40 29/35/31
f 27/37/33 33/48/41 34/49/42
f 32/42/36 38/46/39 39/45/38
f 29/35/31 37/50/43 30/36/32
f 27/37/33 35/51/44 28/38/34
f 26/40/35 62/52/5 33/48/41
f 36/47/40 42/53/45 43/54/46
f 34/49/42 40/55/47 41/56/48
f 39/45/38 45/57/49 46/58/50
f 36/47/40 44/59/51 37/50/43
f 34/49/42 42/53/45 35/51/44
f 33/48/41 62/60/5 40/55/47
f 61/61/7 39/45/38 46/58/50
f 37/50/43 45/57/49 38/46/39
f 45/57/49 53/62/52 46/58/50
f 44/59/51 50/63/53 51/64/54
f 41/56/48 49/65/55 42/53/45
f 40/55/47 62/66/5 47/67/56
f 61/68/7 46/58/50 53/62/52
f 45/57/49 51/64/54 52/69/57
f 42/53/45 50/63/53 43/54/46
f 40/55/47 48/70/58 41/56/48
f 48/70/58 56/71/59 49/65/55
f 47/67/56 62/72/5 54/73/60
f 61/74/7 53/62/52 60/75/61
f 51/64/54 59/76/62 52/69/57
f 50/63/53 56/71/59 57/77/63
f 47/67/56 55/78/64 48/70/58
f 53/62/52 59/76/62 60/75/61
f 50/63/53 58/79/65 51/64/54
f 61/80/7 60/75/61 69/81/66
f 59/76/62 67/82/67 68/83/68
f 56/71/59 66/84/69 57/77/63
f 54/73/60 64/85/70 55/78/64
f 59/76/62 69/81/66 60/75/61
f 57/77/63 67/82/67 58/79/65
f 55/78/64 65/86/71 56/71/59
f 54/73/60 62/87/5 63/88/72
f 63/88/72 71/89/73 64/85/70
f 69/81/66 75/90/74 76/91/75
f 66/84/69 74/92/76 67/82/67
f 64/85/70 72/93/77 65/86/71
f 63/88/72 62/94/5 70/95/78
f 61/96/7 69/81/66 76/91/75
f 68/83/68 74/92/76 75/90/74
f 66/84/69 72/93/77 73/97/79
f 75/90/74 83/98/80 76/91/75
f 73/97/79 81/99/81 74/92/76
f 71/89/73 79/100/82 72/93/77
f 70/95/78 62/101/5 77/102/83
f 61/103/7 76/91/75 83/98/80
f 75/90/74 81/99/81 82/104/84
f 73/97/79 79/100/82 80/105/85
f 70/95/78 78/106/86 71/89/73
f 77/102/83 62/107/5 84/108/87
f 61/109/7 83/98/80 90/110/88
f 82/104/84 88/111/89 89/112/90
f 80/105/85 86/113/91 87/114/92
f 78/106/86 84/108/87 85/115/93
f 82/104/84 90/110/88 83/98/80
f 80/105/85 88/111/89 81/99/81
f 78/106/86 86/113/91 79/100/82
f 88/116/89 96/117/94 89/118/90
f 87/119/92 93/120/95 94/121/96
f 84/122/87 92/123/97 85/124/93
f 89/118/90 97/125/98 90/126/88
f 87/119/92 95/127/99 88/116/89
f 85/124/93 93/120/95 86/128/91
f 84/122/87 62/129/5 91/130/100
f 61/131/7 90/126/88 97/125/98
f 96/117/94 104/132/101 97/125/98
f 94/121/96 102/133/102 95/127/99
f 92/123/97 100/134/103 93/120/95
f 91/130/100 62/135/5 98/136/104
f 61/137/7 97/125/98 104/132/101
f 96/117/94 102/133/102 103/138/105
f 94/121/96 100/134/103 101/139/106
f 91/130/100 99/140/107 92/123/97
f 101/139/106 109/141/108 102/133/102
f 99/140/107 107/142/109 100/134/103
f 98/136/104 62/143/5 105/144/110
f 61/145/7 104/132/101 111/146/111
f 103/138/105 109/141/108 110/147/112
f 101/139/106 107/142/109 108/148/113
f 98/136/104 106/149/114 99/140/107
f 103/138/105 111/146/111 104/132/101
f 61/150/7 111/146/111 4/8/8
f 110/147/112 3/16/16 114/10/10
f 107/142/109 2/14/14 108/148/113
f 106/149/114 112/4/4 113/1/1
f 110/147/112 4/8/8 111/146/111
f 108/148/113 3/16/16 109/141/108
f 106/149/114 1/3/3 107/142/109
f 105/144/110 62/151/5 112/4/4
f 113/1/1 6/15/15 7/2/2
f 114/10/10 3/16/16 9/11/11
f 1/3/3 7/2/2 8/13/13
f 113/1/1 112/4/4 5/6/6
f 114/10/10 10/12/12 11/9/9
f 2/14/14 8/13/13 9/11/11
f 9/11/11 16/21/21 17/17/17
f 7/2/2 14/22/22 15/18/18
f 5/6/6 12/24/23 13/19/19
f 10/12/12 17/17/17 18/20/20
f 9/11/11 8/13/13 15/18/18
f 6/15/15 13/19/19 14/22/22
f 17/17/17 24/32/28 25/26/24
f 15/18/18 22/33/29 23/27/25
f 13/19/19 20/34/30 21/28/26
f 17/17/17 16/21/21 23/27/25
f 15/18/18 14/22/22 21/28/26
f 12/24/23 19/30/27 20/34/30
f 23/27/25 22/33/29 29/35/31
f 21/28/26 20/34/30 27/37/33
f 23/27/25 30/36/32 31/43/37
f 21/28/26 28/38/34 29/35/31
f 19/30/27 26/40/35 27/37/33
f 24/32/28 31/43/37 32/42/36
f 30/36/32 37/50/43 38/46/39
f 28/38/34 35/51/44 36/47/40
f 27/37/33 26/40/35 33/48/41
f 32/42/36 31/43/37 38/46/39
f 29/35/31 36/47/40 37/50/43
f 27/37/33 34/49/42 35/51/44
f 36/47/40 35/51/44 42/53/45
f 34/49/42 33/48/41 40/55/47
f 39/45/38 38/46/39 45/57/49
f 36/47/40 43/54/46 44/59/51
f 34/49/42 41/56/48 42/53/45
f 37/50/43 44/59/51 45/57/49
f 45/57/49 52/69/57 53/62/52
f 44/59/51 43/54/46 50/63/53
f 41/56/48 48/70/58 49/65/55
f 45/57/49 44/59/51 51/64/54
f 42/53/45 49/65/55 50/63/53
f 40/55/47 47/67/56 48/70/58
f 48/70/58 55/78/64 56/71/59
f 51/64/54 58/79/65 59/76/62
f 50/63/53 49/65/55 56/71/59
f 47/67/56 54/73/60 55/78/64
f 53/62/52 52/69/57 59/76/62
f 50/63/53 57/77/63 58/79/65
f 59/76/62 58/79/65 67/82/67
f 56/71/59 65/86/71 66/84/69
f 54/73/60 63/88/72 64/85/70
f 59/76/62 68/83/68 69/81/66
f 57/77/63 66/84/69 67/82/67
f 55/78/64 64/85/70 65/86/71
f 63/88/72 70/95/78 71/89/73
f 69/81/66 68/83/68 75/90/74
f 66/84/69 73/97/79 74/92/76
f 64/85/70 71/89/73 72/93/77
f 68/83/68 67/82/67 74/92/76
f 66/84/69 65/86/71 72/93/77
f 75/90/74 82/104/84 83/98/80
f 73/97/79 80/105/85 81/99/81
f 71/89/73 78/106/86 79/100/82
f 75/90/74 74/92/76 81/99/81
f 73/97/79 72/93/77 79/100/82
f 70/95/78 77/102/83 78/106/86
f 82/104/84 81/99/81 88/111/89
f 80/105/85 79/100/82 86/113/91
f 78/106/86 77/102/83 84/108/87
f 82/104/84 89/112/90 90/110/88
f 80/105/85 87/114/92 88/111/89
f 78/106/86 85/115/93 86/113/91
f 88/116/89 95/127/99 96/117/94
f 87/119/92 86/128/91 93/120/95
f 84/122/87 91/130/100 92/123/97
f 89/118/90 96/117/94 97/125/98
f 87/119/92 94/121/96 95/127/99
f 85/124/93 92/123/97 93/120/95
f 96/117/94 103/138/105 104/132/101
f 94/121/96 101/139/106 102/133/102
f 92/123/97 99/140/107 100/134/103
f 96/117/94 95/127/99 102/133/102
f 94/121/96 93/120/95 100/134/103
f 91/130/100 98/136/104 99/140/107
f 101/139/106 108/148/113 109/141/108
f 99/140/107 106/149/114 107/142/109
f 103/138/105 102/133/102 109/141/108
f 101/139/106 100/134/103 107/142/109
f 98/136/104 105/144/110 106/149/114
f 103/138/105 110/147/112 111/146/111
f 110/147/112 109/141/108 3/16/16
f 107/142/109 1/3/3 2/14/14
f 106/149/114 105/144/110 112/4/4
f 110/147/112 114/10/10 4/8/8
f 108/148/113 2/14/14 3/16/16
f 106/149/114 113/1/1 1/3/3
