mtllib gallery.mtl
o paint
usemtl paint
v -2.5 0.382683 -0.92388
v -2.5 0.0 -1.0
v -2.5 -0.382683 -0.92388
v -2.5 -0.92388 -0.382683
v -2.353553 0.92388 -0.353553
v -2.229402 0.707107 -0.653281
v -2.146447 0.382683 -0.853553
v -2.117317 0.0 -0.92388
v -2.146447 -0.382683 -0.853553
v -2.229402 -0.707107 -0.653281
v -2.353553 -0.92388 -0.353553
v -2.229402 0.92388 -0.270598
v -2.0 0.707107 -0.5
v -1.846718 0.382683 -0.653281
v -1.7928929999999998 0.0 -0.707107
v -1.846718 -0.382683 -0.653281
v -2.0 -0.707107 -0.5
v -2.229402 -0.92388 -0.270598
v -2.146447 0.92388 -0.146447
v -1.846719 0.707107 -0.270598
v -1.646447 0.382683 -0.353553
v -1.57612 0.0 -0.382683
v -1.646447 -0.382683 -0.353553
v -1.846719 -0.707107 -0.270598
v -2.146447 -0.92388 -0.146447
v -2.117317 0.92388 0.0
v -1.7928929999999998 0.707107 0.0
v -1.57612 0.382683 0.0
v -1.5 0.0 0.0
v -1.57612 -0.382683 0.0
v -1.7928929999999998 -0.707107 0.0
v -2.117317 -0.92388 0.0
v -2.146447 0.92388 0.146447
v -1.846719 0.707107 0.270598
v -1.646447 0.382683 0.353554
v -1.576121 0.0 0.382684
v -1.646447 -0.382683 0.353554
v -1.846719 -0.707107 0.270598
v -2.146447 -0.92388 0.146447
v -2.229402 0.92388 0.270598
v -2.0 0.707107 0.5
v -1.846719 0.382683 0.653282
v -1.7928929999999998 0.0 0.707107
v -1.846719 -0.382683 0.653282
v -2.0 -0.707107 0.5
v -2.229402 -0.92388 0.270598
v -2.353553 0.92388 0.353553
v -2.229402 0.707107 0.653281
v -2.146447 0.382683 0.853553
v -2.117317 0.0 0.92388
v -2.146447 -0.382683 0.853553
v -2.229402 -0.707107 0.653281
v -2.353553 -0.92388 0.353553
v -2.5 0.92388 0.382683
v -2.5 0.707107 0.707107
v -2.5 0.382683 0.923879
v -2.5 0.0 1.0
v -2.5 -0.382683 0.923879
v -2.5 -0.707107 0.707107
v -2.5 -0.92388 0.382683
v -2.5 -1.0 0.0
v -2.5 1.0 0.0
v -2.646447 0.92388 0.353553
v -2.770598 0.707107 0.653281
v -2.853554 0.382683 0.853553
v -2.8826840000000002 0.0 0.923879
v -2.853554 -0.382683 0.853553
v -2.770598 -0.707107 0.653281
v -2.646447 -0.92388 0.353553
v -2.770598 0.92388 0.270598
v -3.0 0.707107 0.5
v -3.153282 0.382683 0.653281
v -3.207107 0.0 0.707106
v -3.153282 -0.382683 0.653281
v -3.0 -0.707107 0.5
v -2.770598 -0.92388 0.270598
v -2.853553 0.92388 0.146446
v -3.153281 0.707107 0.270598
v -3.353553 0.382683 0.353553
v -3.42388 0.0 0.382683
v -3.353553 -0.382683 0.353553
v -3.153281 -0.707107 0.270598
v -2.853553 -0.92388 0.146446
v -2.882683 0.92388 0.0
v -3.207107 0.707107 0.0
v -3.423879 0.382683 0.0
v -3.5 0.0 -1e-06
v -3.423879 -0.382683 0.0
v -3.207107 -0.707107 0.0
v -2.882683 -0.92388 0.0
v -2.853553 0.92388 -0.146447
v -3.153281 0.707107 -0.270598
v -3.353553 0.382683 -0.353554
v -3.423879 0.0 -0.382684
v -3.353553 -0.382683 -0.353554
v -3.153281 -0.707107 -0.270598
v -2.853553 -0.92388 -0.146447
v -2.770598 0.92388 -0.270598
v -3.0 0.707107 -0.5
v -3.153281 0.382683 -0.653282
v -3.207106 0.0 -0.707107
v -3.153281 -0.382683 -0.653282
v -3.0 -0.707107 -0.5
v -2.770598 -0.92388 -0.270598
v -2.646446 0.92388 -0.353554
v -2.770598 0.707107 -0.653281
v -2.853553 0.382683 -0.853553
v -2.882683 0.0 -0.92388
v -2.853553 -0.382683 -0.853553
v -2.770598 -0.707107 -0.653281
v -2.646446 -0.92388 -0.353554
v -2.5 0.92388 -0.382683
v -2.5 0.707107 -0.707107
v -2.5 -0.707107 -0.707107
vt 0.750000 0.750000
vt 0.687500 0.625000
vt 0.750000 0.625000
vt 0.750000 0.875000
vt 0.718750 1.000000
vt 0.687500 0.875000
vt 0.718750 0.000000
vt 0.750000 0.125000
vt 0.687500 0.125000
vt 0.750000 0.250000
vt 0.687500 0.375000
vt 0.687500 0.250000
vt 0.687500 0.500000
vt 0.750000 0.500000
vt 0.687500 0.750000
vt 0.750000 0.375000
vt 0.625000 0.250000
vt 0.625000 0.500000
vt 0.625000 0.750000
vt 0.625000 0.125000
vt 0.625000 0.375000
vt 0.625000 0.625000
vt 0.656250 1.000000
vt 0.625000 0.875000
vt 0.656250 0.000000
vt 0.562500 0.125000
vt 0.562500 0.375000
vt 0.562500 0.625000
vt 0.593750 1.000000
vt 0.562500 0.875000
vt 0.593750 0.000000
vt 0.562500 0.250000
vt 0.562500 0.500000
vt 0.562500 0.750000
vt 0.500000 0.500000
vt 0.500000 0.375000
vt 0.500000 0.750000
vt 0.500000 0.625000
vt 0.531250 1.000000
vt 0.500000 0.875000
vt 0.531250 0.000000
vt 0.500000 0.125000
vt 0.500000 0.250000
vt 0.468750 0.000000
vt 0.437500 0.125000
vt 0.437500 0.250000
vt 0.437500 0.500000
vt 0.437500 0.875000
vt 0.437500 0.750000
vt 0.437500 0.375000
vt 0.437500 0.625000
vt 0.468750 1.000000
vt 0.375000 0.625000
vt 0.375000 0.500000
vt 0.375000 0.875000
vt 0.375000 0.750000
vt 0.375000 0.250000
vt 0.375000 0.125000
vt 0.375000 0.375000
vt 0.406250 1.000000
vt 0.406250 0.000000
vt 0.312500 0.125000
vt 0.312500 0.500000
vt 0.312500 0.375000
vt 0.312500 0.625000
vt 0.343750 1.000000
vt 0.312500 0.875000
vt 0.343750 0.000000
vt 0.312500 0.250000
vt 0.312500 0.750000
vt 0.250000 0.625000
vt 0.281250 1.000000
vt 0.250000 0.875000
vt 0.281250 0.000000
vt 0.250000 0.125000
vt 0.250000 0.250000
vt 0.250000 0.500000
vt 0.250000 0.750000
vt 0.250000 0.375000
vt 0.218750 0.000000
vt 0.187500 0.125000
vt 0.187500 0.375000
vt 0.187500 0.250000
vt 0.187500 0.500000
vt 0.187500 0.750000
vt 0.187500 0.625000
vt 0.218750 1.000000
vt 0.187500 0.875000
vt 0.125000 0.750000
vt 0.125000 0.250000
vt 0.125000 0.125000
vt 0.125000 0.375000
vt 0.125000 0.625000
vt 0.156250 1.000000
vt 0.125000 0.875000
vt 0.156250 0.000000
vt 0.125000 0.500000
vt 0.062500 0.125000
vt 0.062500 0.375000
vt 0.062500 0.625000
vt 0.093750 1.000000
vt 0.062500 0.875000
vt 0.093750 0.000000
vt 0.062500 0.250000
vt 0.062500 0.500000
vt 0.062500 0.750000
vt 0.031250 1.000000
vt 0.000000 0.875000
vt 0.031250 0.000000
vt 0.000000 0.125000
vt 0.000000 0.375000
vt 0.000000 0.250000
vt 0.000000 0.625000
vt 0.000000 0.500000
vt 0.000000 0.750000
vt 1.000000 0.375000
vt 0.937500 0.250000
vt 1.000000 0.250000
vt 1.000000 0.500000
vt 0.937500 0.625000
vt 0.937500 0.500000
vt 1.000000 0.875000
vt 0.937500 0.750000
vt 1.000000 0.750000
vt 0.937500 0.125000
vt 1.000000 0.125000
vt 0.937500 0.375000
vt 1.000000 0.625000
vt 0.968750 1.000000
vt 0.937500 0.875000
vt 0.968750 0.000000
vt 0.875000 0.125000
vt 0.875000 0.375000
vt 0.875000 0.625000
vt 0.906250 1.000000
vt 0.875000 0.875000
vt 0.906250 0.000000
vt 0.875000 0.250000
vt 0.875000 0.500000
vt 0.875000 0.750000
vt 0.812500 0.375000
vt 0.812500 0.625000
vt 0.843750 1.000000
vt 0.812500 0.875000
vt 0.843750 0.000000
vt 0.812500 0.125000
vt 0.812500 0.250000
vt 0.812500 0.500000
vt 0.812500 0.750000
vt 0.781250 0.000000
vt 0.781250 1.000000
vn 0.0 0.6952 -0.7189
vn 0.3549 0.3744 -0.8567
vn -0.0 0.3744 -0.9273
vn 0.0 0.9152 -0.4031
vn 0.0 1.0 -0.0
vn 0.1543 0.9152 -0.3724
vn 0.0 -1.0 0.0
vn 0.0 -0.9152 -0.4031
vn 0.1543 -0.9152 -0.3724
vn 0.0 -0.6952 -0.7189
vn 0.3549 -0.3744 -0.8567
vn 0.2751 -0.6952 -0.6641
vn 0.3827 0.0 -0.9239
vn 0.0 0.0 -1.0
vn 0.2751 0.6952 -0.6641
vn 0.0 -0.3744 -0.9273
vn 0.5083 -0.6952 -0.5083
vn 0.7071 0.0 -0.7071
vn 0.5083 0.6952 -0.5083
vn 0.285 -0.9152 -0.285
vn 0.6557 -0.3744 -0.6557
vn 0.6557 0.3744 -0.6557
vn 0.285 0.9152 -0.285
vn 0.3724 -0.9152 -0.1543
vn 0.8567 -0.3744 -0.3549
vn 0.8567 0.3744 -0.3549
vn 0.3724 0.9152 -0.1543
vn 0.6641 -0.6952 -0.2751
vn 0.9239 0.0 -0.3827
vn 0.6641 0.6952 -0.2751
vn 1.0 -0.0 0.0
vn 0.9273 -0.3744 0.0
vn 0.7189 0.6952 0.0
vn 0.9273 0.3744 0.0
vn 0.4031 0.9152 -0.0
vn 0.4031 -0.9152 -0.0
vn 0.7189 -0.6952 0.0
vn 0.3724 -0.9152 0.1543
vn 0.6641 -0.6952 0.2751
vn 0.9239 0.0 0.3827
vn 0.3724 0.9152 0.1543
vn 0.6641 0.6952 0.2751
vn 0.8567 -0.3744 0.3549
vn 0.8567 0.3744 0.3549
vn 0.6557 0.3744 0.6557
vn 0.7071 0.0 0.7071
vn 0.285 0.9152 0.285
vn 0.5083 0.6952 0.5083
vn 0.5083 -0.6952 0.5083
vn 0.285 -0.9152 0.285
vn 0.6557 -0.3744 0.6557
vn 0.1543 -0.9152 0.3724
vn 0.3827 0.0 0.9239
vn 0.3549 -0.3744 0.8567
vn 0.3549 0.3744 0.8567
vn 0.1543 0.9152 0.3724
vn 0.2751 -0.6952 0.6641
vn 0.2751 0.6952 0.6641
vn -0.0 0.3744 0.9273
vn -0.0 0.9152 0.4031
vn -0.0 -0.9152 0.4031
vn -0.0 -0.6952 0.7189
vn -0.0 -0.0 1.0
vn -0.0 0.6952 0.7189
vn -0.0 -0.3744 0.9273
vn -0.1543 -0.9152 0.3724
vn -0.3549 -0.3744 0.8567
vn -0.2751 -0.6952 0.6641
vn -0.3827 -0.0 0.9239
vn -0.2751 0.6952 0.6641
vn -0.3549 0.3744 0.8567
vn -0.1543 0.9152 0.3724
vn -0.5083 0.6952 0.5083
vn -0.5083 -0.6952 0.5083
vn -0.285 -0.9152 0.285
vn -0.6557 -0.3744 0.6557
vn -0.6557 0.3744 0.6557
vn -0.285 0.9152 0.285
vn -0.7071 0.0 0.7071
vn -0.3724 -0.9152 0.1543
vn -0.8567 -0.3744 0.3549
vn -0.8567 0.3744 0.3549
vn -0.3724 0.9152 0.1543
vn -0.6641 -0.6952 0.2751
vn -0.9239 -0.0 0.3827
vn -0.6641 0.6952 0.2751
vn -0.4031 0.9152 0.0
vn -0.4031 -0.9152 -0.0
vn -0.9273 -0.3744 -0.0
vn -0.7189 -0.6952 -0.0
vn -0.9273 0.3744 -0.0
vn -1.0 0.0 -0.0
vn -0.7189 0.6952 -0.0
vn -0.6641 -0.6952 -0.2751
vn -0.8567 0.3744 -0.3549
vn -0.9239 -0.0 -0.3827
vn -0.6641 0.6952 -0.2751
vn -0.3724 -0.9152 -0.1543
vn -0.8567 -0.3744 -0.3549
vn -0.3724 0.9152 -0.1543
vn -0.285 -0.9152 -0.285
vn -0.6557 -0.3744 -0.6557
vn -0.6557 0.3744 -0.6557
vn -0.285 0.9152 -0.285
vn -0.5083 -0.6952 -0.5083
vn -0.7071 0.0 -0.7071
vn -0.5083 0.6952 -0.5083
vn -0.3549 -0.3744 -0.8567
vn -0.3549 0.3744 -0.8567
vn -0.1543 0.9152 -0.3724
vn -0.1543 -0.9152 -0.3724
vn -0.2751 -0.6952 -0.6641
vn -0.3827 0.0 -0.9239
vn -0.2751 0.6952 -0.6641
f 113/1/1 7/2/2 1/3/3
f 112/4/4 62/5/5 5/6/6
f 61/7/7 4/8/8 11/9/9
f 114/10/10 9/11/11 10/12/12
f 1/3/3 8/13/13 2/14/14
f 113/1/1 5/6/6 6/15/15
f 114/10/10 11/9/9 4/8/8
f 2/14/14 9/11/11 3/16/16
f 9/11/11 17/17/17 10/12/12
f 7/2/2 15/18/18 8/13/13
f 5/6/6 13/19/19 6/15/15
f 10/12/12 18/20/20 11/9/9
f 9/11/11 15/18/18 16/21/21
f 6/15/15 14/22/22 7/2/2
f 5/6/6 62/23/5 12/24/23
f 61/25/7 11/9/9 18/20/20
f 17/17/17 25/26/24 18/20/20
f 15/18/18 23/27/25 16/21/21
f 13/19/19 21/28/26 14/22/22
f 12/24/23 62/29/5 19/30/27
f 61/31/7 18/20/20 25/26/24
f 17/17/17 23/27/25 24/32/28
f 15/18/18 21/28/26 22/33/29
f 12/24/23 20/34/30 13/19/19
f 23/27/25 29/35/31 30/36/32
f 21/28/26 27/37/33 28/38/34
f 19/30/27 62/39/5 26/40/35
f 61/41/7 25/26/24 32/42/36
f 23/27/25 31/43/37 24/32/28
f 21/28/26 29/35/31 22/33/29
f 19/30/27 27/37/33 20/34/30
f 24/32/28 32/42/36 25/26/24
f 61/44/7 32/42/36 39/45/38
f 30/36/32 38/46/39 31/43/37
f 28/38/34 36/47/40 29/35/31
f 27/37/33 33/48/41 34/49/42
f 32/42/36 38/46/39 39/45/38
f 29/35/31 37/50/43 30/36/32
f 27/37/33 35/51/44 28/38/34
f 26/40/35 62/52/5 33/48/41
f 36/47/40 42/53/45 43/54/46
f 34/49/42 40/55/47 41/56/48
f 39/45/38 45/57/49 46/58/50
f 36/47/40 44/59/51 37/50/43
f 34/49/42 42/53/45 35/51/44
f 33/48/41 62/60/5 40/55/47
f 61/61/7 39/45/38 46/58/50
f 37/50/43 45/57/49 38/46/39
f 45/57/49 53/62/52 46/58/50
f 44/59/51 50/63/53 51/64/54
f 41/56/48 49/65/55 42/53/45
f 40/55/47 62/66/5 47/67/56
f 61/68/7 46/58/50 53/62/52
f 45/57/49 51/64/54 52/69/57
f 42/53/45 50/63/53 43/54/46
f 40/55/47 48/70/58 41/56/48
f 48/70/58 56/71/59 49/65/55
f 47/67/56 62/72/5 54/73/60
f 61/74/7 53/62/52 60/75/61
f 51/64/54 59/76/62 52/69/57
f 50/63/53 56/71/59 57/77/63
f 47/67/56 55/78/64 48/70/58
f 53/62/52 59/76/62 60/75/61
f 50/63/53 58/79/65 51/64/54
f 61/80/7 60/75/61 69/81/66
f 59/76/62 67/82/67 68/83/68
f 56/71/59 66/84/69 57/77/63
f 54/73/60 64/85/70 55/78/64
f 59/76/62 69/81/66 60/75/61
f 57/77/63 67/82/67 58/79/65
f 55/78/64 65/86/71 56/71/59
f 54/73/60 62/87/5 63/88/72
f 63/88/72 71/89/73 64/85/70
f 69/81/66 75/90/74 76/91/75
f 66/84/69 74/92/76 67/82/67
f 64/85/70 72/93/77 65/86/71
f 63/88/72 62/94/5 70/95/78
f 61/96/7 69/81/66 76/91/75
f 68/83/68 74/92/76 75/90/74
f 66/84/69 72/93/77 73/97/79
f 75/90/74 83/98/80 76/91/75
f 73/97/79 81/99/81 74/92/76
f 71/89/73 79/100/82 72/93/77
f 70/95/78 62/101/5 77/102/83
f 61/103/7 76/91/75 83/98/80
f 75/90/74 81/99/81 82/104/84
f 73/97/79 79/100/82 80/105/85
f 70/95/78 78/106/86 71/89/73
f 77/102/83 62/107/5 84/108/87
f 61/109/7 83/98/80 90/110/88
f 82/104/84 88/111/89 89/112/90
f 80/105/85 86/113/91 87/114/92
f 78/106/86 84/108/87 85/115/93
f 82/104/84 90/110/88 83/98/80
f 80/105/85 88/111/89 81/99/81
f 78/106/86 86/113/91 79/100/82
f 88/116/89 96/117/94 89/118/90
f 87/119/92 93/120/95 94/121/96
f 84/122/87 92/123/97 85/124/93
f 89/118/90 97/125/98 90/126/88
f 87/119/92 95/127/99 88/116/89
f 85/124/93 93/120/95 86/128/91
f 84/122/87 62/129/5 91/130/100
f 61/131/7 90/126/88 97/125/98
f 96/117/94 104/132/101 97/125/98
f 94/121/96 102/133/102 95/127/99
f 92/123/97 100/134/103 93/120/95
f 91/130/100 62/135/5 98/136/104
f 61/137/7 97/125/98 104/132/101
f 96/117/94 102/133/102 103/138/105
f 94/121/96 100/134/103 101/139/106
f 91/130/100 99/140/107 92/123/97
f 101/139/106 109/141/108 102/133/102
f 99/140/107 107/142/109 100/134/103
f 98/136/104 62/143/5 105/144/110
f 61/145/7 104/132/101 111/146/111
f 103/138/105 109/141/108 110/147/112
f 101/139/106 107/142/109 108/148/113
f 98/136/104 106/149/114 99/140/107
f 103/138/105 111/146/111 104/132/101
f 61/150/7 111/146/111 4/8/8
f 110/147/112 3/16/16 114/10/10
f 107/142/109 2/14/14 108/148/113
f 106/149/114 112/4/4 113/1/1
f 110/147/112 4/8/8 111/146/111
f 108/148/113 3/16/16 109/141/108
f 106/149/114 1/3/3 107/142/109
f 105/144/110 62/151/5 112/4/4
f 113/1/1 6/15/15 7/2/2
f 114/10/10 3/16/16 9/11/11
f 1/3/3 7/2/2 8/13/13
f 113/1/1 112/4/4 5/6/6
f 114/10/10 10/12/12 11/9/9
f 2/14/14 8/13/13 9/11/11
f 9/11/11 16/21/21 17/17/17
f 7/2/2 14/22/22 15/18/18
f 5/6/6 12/24/23 13/19/19
f 10/12/12 17/17/17 18/20/20
f 9/11/11 8/13/13 15/18/18
f 6/15/15 13/19/19 14/22/22
f 17/17/17 24/32/28 25/26/24
f 15/18/18 22/33/29 23/27/25
f 13/19/19 20/34/30 21/28/26
f 17/17/17 16/21/21 23/27/25
f 15/18/18 14/22/22 21/28/26
f 12/24/23 19/30/27 20/34/30
f 23/27/25 22/33/29 29/35/31
f 21/28/26 20/34/30 27/37/33
f 23/27/25 30/36/32 31/43/37
f 21/28/26 28/38/34 29/35/31
f 19/30/27 26/40/35 27/37/33
f 24/32/28 31/43/37 32/42/36
f 30/36/32 37/50/43 38/46/39
f 28/38/34 35/51/44 36/47/40
f 27/37/33 26/40/35 33/48/41
f 32/42/36 31/43/37 38/46/39
f 29/35/31 36/47/40 37/50/43
f 27/37/33 34/49/42 35/51/44
f 36/47/40 35/51/44 42/53/45
f 34/49/42 33/48/41 40/55/47
f 39/45/38 38/46/39 45/57/49
f 36/47/40 43/54/46 44/59/51
f 34/49/42 41/56/48 42/53/45
f 37/50/43 44/59/51 45/57/49
f 45/57/49 52/69/57 53/62/52
f 44/59/51 43/54/46 50/63/53
f 41/56/48 48/70/58 49/65/55
f 45/57/49 44/59/51 51/64/54
f 42/53/45 49/65/55 50/63/53
f 40/55/47 47/67/56 48/70/58
f 48/70/58 55/78/64 56/71/59
f 51/64/54 58/79/65 59/76/62
f 50/63/53 49/65/55 56/71/59
f 47/67/56 54/73/60 55/78/64
f 53/62/52 52/69/57 59/76/62
f 50/63/53 57/77/63 58/79/65
f 59/76/62 58/79/65 67/82/67
f 56/71/59 65/86/71 66/84/69
f 54/73/60 63/88/72 64/85/70
f 59/76/62 68/83/68 69/81/66
f 57/77/63 66/84/69 67/82/67
f 55/78/64 64/85/70 65/86/71
f 63/88/72 70/95/78 71/89/73
f 69/81/66 68/83/68 75/90/74
f 66/84/69 73/97/79 74/92/76
f 64/85/70 71/89/73 72/93/77
f 68/83/68 67/82/67 74/92/76
f 66/84/69 65/86/71 72/93/77
f 75/90/74 82/104/84 83/98/80
f 73/97/79 80/105/85 81/99/81
f 71/89/73 78/106/86 79/100/82
f 75/90/74 74/92/76 81/99/81
f 73/97/79 72/93/77 79/100/82
f 70/95/78 77/102/83 78/106/86
f 82/104/84 81/99/81 88/111/89
f 80/105/85 79/100/82 86/113/91
f 78/106/86 77/102/83 84/108/87
f 82/104/84 89/112/90 90/110/88
f 80/105/85 87/114/92 88/111/89
f 78/106/86 85/115/93 86/113/91
f 88/116/89 95/127/99 96/117/94
f 87/119/92 86/128/91 93/120/95
f 84/122/87 91/130/100 92/123/97
f 89/118/90 96/117/94 97/125/98
f 87/119/92 94/121/96 95/127/99
f 85/124/93 92/123/97 93/120/95
f 96/117/94 103/138/105 104/132/101
f 94/121/96 101/139/106 102/133/102
f 92/123/97 99/140/107 100/134/103
f 96/117/94 95/127/99 102/133/102
f 94/121/96 93/120/95 100/134/103
f 91/130/100 98/136/104 99/140/107
f 101/139/106 108/148/113 109/141/108
f 99/140/107 106/149/114 107/142/109
f 103/138/105 102/133/102 109/141/108
f 101/139/106 100/134/103 107/142/109
f 98/136/104 105/144/110 106/149/114
f 103/138/105 110/147/112 111/146/111
f 110/147/112 109/141/108 3/16/16
f 107/142/109 1/3/3 2/14/14
f 106/149/114 105/144/110 112/4/4
f 110/147/112 114/10/10 4/8/8
f 108/148/113 2/14/14 3/16/16
f 106/149/114 113/1/1 1/3/3
o glass
usemtl glass
v -0.8 -1.0 -0.8
v 0.8 -1.0 -0.8
v 0.8 1.0 -0.8
v -0.8 1.0 -0.8
v -0.8 -1.0 0.8
v 0.8 -1.0 0.8
v 0.8 1.0 0.8
v -0.8 1.0 0.8
vt 0 0
vt 1 0
vt 1 1
vt 0 1
vn 0.0 0.0 -1.25
vn 0.0 0.0 1.25
vn -1.25 0.0 0.0
vn 1.25 0.0 0.0
vn 0.0 -1.0 0.0
vn 0.0 1.0 0.0
f 115/152/115 118/153/115 117/154/115 116/155/115
f 119/152/116 120/153/116 121/154/116 122/155/116
f 115/152/117 119/153/117 122/154/117 118/155/117
f 116/152/118 117/153/118 121/154/118 120/155/118
f 115/152/119 116/153/119 120/154/119 119/155/119
f 118/152/120 122/153/120 121/154/120 117/155/120
o mirror
usemtl mirror
v 2.5 0.26787809999999995 -0.92388
v 2.5 0.0 -1.0
v 2.5 -0.26787809999999995 -0.92388
v 2.5 -0.646716 -0.382683
v 2.646447 0.646716 -0.353553
v 2.770598 0.4949749 -0.653281
v 2.853553 0.26787809999999995 -0.853553
v 2.882683 0.0 -0.92388
v 2.853553 -0.26787809999999995 -0.853553
v 2.770598 -0.4949749 -0.653281
v 2.646447 -0.646716 -0.353553
v 2.770598 0.646716 -0.270598
v 3.0 0.4949749 -0.5
v 3.153282 0.26787809999999995 -0.653281
v 3.207107 0.0 -0.707107
v 3.153282 -0.26787809999999995 -0.653281
v 3.0 -0.4949749 -0.5
v 2.770598 -0.646716 -0.270598
v 2.853553 0.646716 -0.146447
v 3.153281 0.4949749 -0.270598
v 3.353553 0.26787809999999995 -0.353553
v 3.42388 0.0 -0.382683
v 3.353553 -0.26787809999999995 -0.353553
v 3.153281 -0.4949749 -0.270598
v 2.853553 -0.646716 -0.146447
v 2.882683 0.646716 0.0
v 3.207107 0.4949749 0.0
v 3.42388 0.26787809999999995 0.0
v 3.5 0.0 0.0
v 3.42388 -0.26787809999999995 0.0
v 3.207107 -0.4949749 0.0
v 2.882683 -0.646716 0.0
v 2.853553 0.646716 0.146447
v 3.153281 0.4949749 0.270598
v 3.353553 0.26787809999999995 0.353554
v 3.423879 0.0 0.382684
v 3.353553 -0.26787809999999995 0.353554
v 3.153281 -0.4949749 0.270598
v 2.853553 -0.646716 0.146447
v 2.770598 0.646716 0.270598
v 3.0 0.4949749 0.5
v 3.153281 0.26787809999999995 0.653282
v 3.207107 0.0 0.707107
v 3.153281 -0.26787809999999995 0.653282
v 3.0 -0.4949749 0.5
v 2.770598 -0.646716 0.270598
v 2.646447 0.646716 0.353553
v 2.770598 0.4949749 0.653281
v 2.853553 0.26787809999999995 0.853553
v 2.882683 0.0 0.92388
v 2.853553 -0.26787809999999995 0.853553
v 2.770598 -0.4949749 0.653281
v 2.646447 -0.646716 0.353553
v 2.5 0.646716 0.382683
v 2.5 0.4949749 0.707107
v 2.5 0.26787809999999995 0.923879
v 2.5 0.0 1.0
v 2.5 -0.26787809999999995 0.923879
v 2.5 -0.4949749 0.707107
v 2.5 -0.646716 0.382683
v 2.5 -0.7 0.0
v 2.5 0.7 0.0
v 2.353553 0.646716 0.353553
v 2.229402 0.4949749 0.653281
v 2.146446 0.26787809999999995 0.853553
v 2.1173159999999998 0.0 0.923879
v 2.146446 -0.26787809999999995 0.853553
v 2.229402 -0.4949749 0.653281
v 2.353553 -0.646716 0.353553
v 2.229402 0.646716 0.270598
v 2.0 0.4949749 0.5
v 1.846718 0.26787809999999995 0.653281
v 1.7928929999999998 0.0 0.707106
v 1.846718 -0.26787809999999995 0.653281
v 2.0 -0.4949749 0.5
v 2.229402 -0.646716 0.270598
v 2.146447 0.646716 0.146446
v 1.846719 0.4949749 0.270598
v 1.646447 0.26787809999999995 0.353553
v 1.57612 0.0 0.382683
v 1.646447 -0.26787809999999995 0.353553
v 1.846719 -0.4949749 0.270598
v 2.146447 -0.646716 0.146446
v 2.117317 0.646716 0.0
v 1.7928929999999998 0.4949749 0.0
v 1.576121 0.26787809999999995 0.0
v 1.5 0.0 -1e-06
v 1.576121 -0.26787809999999995 0.0
v 1.7928929999999998 -0.4949749 0.0
v 2.117317 -0.646716 0.0
v 2.146447 0.646716 -0.146447
v 1.846719 0.4949749 -0.270598
v 1.646447 0.26787809999999995 -0.353554
v 1.576121 0.0 -0.382684
v 1.646447 -0.26787809999999995 -0.353554
v 1.846719 -0.4949749 -0.270598
v 2.146447 -0.646716 -0.146447
v 2.229402 0.646716 -0.270598
v 2.0 0.4949749 -0.5
v 1.846719 0.26787809999999995 -0.653282
v 1.792894 0.0 -0.707107
v 1.846719 -0.26787809999999995 -0.653282
v 2.0 -0.4949749 -0.5
v 2.229402 -0.646716 -0.270598
v 2.353554 0.646716 -0.353554
v 2.229402 0.4949749 -0.653281
v 2.146447 0.26787809999999995 -0.853553
v 2.117317 0.0 -0.92388
v 2.146447 -0.26787809999999995 -0.853553
v 2.229402 -0.4949749 -0.653281
v 2.353554 -0.646716 -0.353554
v 2.5 0.646716 -0.382683
v 2.5 0.4949749 -0.707107
v 2.5 -0.4949749 -0.707107
vt 0.750000 0.750000
vt 0.687500 0.625000
vt 0.750000 0.625000
vt 0.750000 0.875000
vt 0.718750 1.000000
vt 0.687500 0.875000
vt 0.718750 0.000000
vt 0.750000 0.125000
vt 0.687500 0.125000
vt 0.750000 0.250000
vt 0.687500 0.375000
vt 0.687500 0.250000
vt 0.687500 0.500000
vt 0.750000 0.500000
vt 0.687500 0.750000
vt 0.750000 0.375000
vt 0.625000 0.250000
vt 0.625000 0.500000
vt 0.625000 0.750000
vt 0.625000 0.125000
vt 0.625000 0.375000
vt 0.625000 0.625000
vt 0.656250 1.000000
vt 0.625000 0.875000
vt 0.656250 0.000000
vt 0.562500 0.125000
vt 0.562500 0.375000
vt 0.562500 0.625000
vt 0.593750 1.000000
vt 0.562500 0.875000
vt 0.593750 0.000000
vt 0.562500 0.250000
vt 0.562500 0.500000
vt 0.562500 0.750000
vt 0.500000 0.500000
vt 0.500000 0.375000
vt 0.500000 0.750000
vt 0.500000 0.625000
vt 0.531250 1.000000
vt 0.500000 0.875000
vt 0.531250 0.000000
vt 0.500000 0.125000
vt 0.500000 0.250000
vt 0.468750 0.000000
vt 0.437500 0.125000
vt 0.437500 0.250000
vt 0.437500 0.500000
vt 0.437500 0.875000
vt 0.437500 0.750000
vt 0.437500 0.375000
vt 0.437500 0.625000
vt 0.468750 1.000000
vt 0.375000 0.625000
vt 0.375000 0.500000
vt 0.375000 0.875000
vt 0.375000 0.750000
vt 0.375000 0.250000
vt 0.375000 0.125000
vt 0.375000 0.375000
vt 0.406250 1.000000
vt 0.406250 0.000000
vt 0.312500 0.125000
vt 0.312500 0.500000
vt 0.312500 0.375000
vt 0.312500 0.625000
vt 0.343750 1.000000
vt 0.312500 0.875000
vt 0.343750 0.000000
vt 0.312500 0.250000
vt 0.312500 0.750000
vt 0.250000 0.625000
vt 0.281250 1.000000
vt 0.250000 0.875000
vt 0.281250 0.000000
vt 0.250000 0.125000
vt 0.250000 0.250000
vt 0.250000 0.500000
vt 0.250000 0.750000
vt 0.250000 0.375000
vt 0.218750 0.000000
vt 0.187500 0.125000
vt 0.187500 0.375000
vt 0.187500 0.250000
vt 0.187500 0.500000
vt 0.187500 0.750000
vt 0.187500 0.625000
vt 0.218750 1.000000
vt 0.187500 0.875000
vt 0.125000 0.750000
vt 0.125000 0.250000
vt 0.125000 0.125000
vt 0.125000 0.375000
vt 0.125000 0.625000
vt 0.156250 1.000000
vt 0.125000 0.875000
vt 0.156250 0.000000
vt 0.125000 0.500000
vt 0.062500 0.125000
vt 0.062500 0.375000
vt 0.062500 0.625000
vt 0.093750 1.000000
vt 0.062500 0.875000
vt 0.093750 0.000000
vt 0.062500 0.250000
vt 0.062500 0.500000
vt 0.062500 0.750000
vt 0.031250 1.000000
vt 0.000000 0.875000
vt 0.031250 0.000000
vt 0.000000 0.125000
vt 0.000000 0.375000
vt 0.000000 0.250000
vt 0.000000 0.625000
vt 0.000000 0.500000
vt 0.000000 0.750000
vt 1.000000 0.375000
vt 0.937500 0.250000
vt 1.000000 0.250000
vt 1.000000 0.500000
vt 0.937500 0.625000
vt 0.937500 0.500000
vt 1.000000 0.875000
vt 0.937500 0.750000
vt 1.000000 0.750000
vt 0.937500 0.125000
vt 1.000000 0.125000
vt 0.937500 0.375000
vt 1.000000 0.625000
vt 0.968750 1.000000
vt 0.937500 0.875000
vt 0.968750 0.000000
vt 0.875000 0.125000
vt 0.875000 0.375000
vt 0.875000 0.625000
vt 0.906250 1.000000
vt 0.875000 0.875000
vt 0.906250 0.000000
vt 0.875000 0.250000
vt 0.875000 0.500000
vt 0.875000 0.750000
vt 0.812500 0.375000
vt 0.812500 0.625000
vt 0.843750 1.000000
vt 0.812500 0.875000
vt 0.843750 0.000000
vt 0.812500 0.125000
vt 0.812500 0.250000
vt 0.812500 0.500000
vt 0.812500 0.750000
vt 0.781250 0.000000
vt 0.781250 1.000000
vn 0.0 0.9931428571428572 -0.7189
vn 0.3549 0.5348571428571429 -0.8567
vn -0.0 0.5348571428571429 -0.9273
vn 0.0 1.3074285714285716 -0.4031
vn 0.0 1.4285714285714286 -0.0
vn 0.1543 1.3074285714285716 -0.3724
vn 0.0 -1.4285714285714286 0.0
vn 0.0 -1.3074285714285716 -0.4031
vn 0.1543 -1.3074285714285716 -0.3724
vn 0.0 -0.9931428571428572 -0.7189
vn 0.3549 -0.5348571428571429 -0.8567
vn 0.2751 -0.9931428571428572 -0.6641
vn 0.3827 0.0 -0.9239
vn 0.0 0.0 -1.0
vn 0.2751 0.9931428571428572 -0.6641
vn 0.0 -0.5348571428571429 -0.9273
vn 0.5083 -0.9931428571428572 -0.5083
vn 0.7071 0.0 -0.7071
vn 0.5083 0.9931428571428572 -0.5083
vn 0.285 -1.3074285714285716 -0.285
vn 0.6557 -0.5348571428571429 -0.6557
vn 0.6557 0.5348571428571429 -0.6557
vn 0.285 1.3074285714285716 -0.285
vn 0.3724 -1.3074285714285716 -0.1543
vn 0.8567 -0.5348571428571429 -0.3549
vn 0.8567 0.5348571428571429 -0.3549
vn 0.3724 1.3074285714285716 -0.1543
vn 0.6641 -0.9931428571428572 -0.2751
vn 0.9239 0.0 -0.3827
vn 0.6641 0.9931428571428572 -0.2751
vn 1.0 -0.0 0.0
vn 0.9273 -0.5348571428571429 0.0
vn 0.7189 0.9931428571428572 0.0
vn 0.9273 0.5348571428571429 0.0
vn 0.4031 1.3074285714285716 -0.0
vn 0.4031 -1.3074285714285716 -0.0
vn 0.7189 -0.9931428571428572 0.0
vn 0.3724 -1.3074285714285716 0.1543
vn 0.6641 -0.9931428571428572 0.2751
vn 0.9239 0.0 0.3827
vn 0.3724 1.3074285714285716 0.1543
vn 0.6641 0.9931428571428572 0.2751
vn 0.8567 -0.5348571428571429 0.3549
vn 0.8567 0.5348571428571429 0.3549
vn 0.6557 0.5348571428571429 0.6557
vn 0.7071 0.0 0.7071
vn 0.285 1.3074285714285716 0.285
vn 0.5083 0.9931428571428572 0.5083
vn 0.5083 -0.9931428571428572 0.5083
vn 0.285 -1.3074285714285716 0.285
vn 0.6557 -0.5348571428571429 0.6557
vn 0.1543 -1.3074285714285716 0.3724
vn 0.3827 0.0 0.9239
vn 0.3549 -0.5348571428571429 0.8567
vn 0.3549 0.5348571428571429 0.8567
vn 0.1543 1.3074285714285716 0.3724
vn 0.2751 -0.9931428571428572 0.6641
vn 0.2751 0.9931428571428572 0.6641
vn -0.0 0.5348571428571429 0.9273
vn -0.0 1.3074285714285716 0.4031
vn -0.0 -1.3074285714285716 0.4031
vn -0.0 -0.9931428571428572 0.7189
vn -0.0 -0.0 1.0
vn -0.0 0.9931428571428572 0.7189
vn -0.0 -0.5348571428571429 0.9273
vn -0.1543 -1.3074285714285716 0.3724
vn -0.3549 -0.5348571428571429 0.8567
vn -0.2751 -0.9931428571428572 0.6641
vn -0.3827 -0.0 0.9239
vn -0.2751 0.9931428571428572 0.6641
vn -0.3549 0.5348571428571429 0.8567
vn -0.1543 1.3074285714285716 0.3724
vn -0.5083 0.9931428571428572 0.5083
vn -0.5083 -0.9931428571428572 0.5083
vn -0.285 -1.3074285714285716 0.285
vn -0.6557 -0.5348571428571429 0.6557
vn -0.6557 0.5348571428571429 0.6557
vn -0.285 1.3074285714285716 0.285
vn -0.7071 0.0 0.7071
vn -0.3724 -1.3074285714285716 0.1543
vn -0.8567 -0.5348571428571429 0.3549
vn -0.8567 0.5348571428571429 0.3549
vn -0.3724 1.3074285714285716 0.1543
vn -0.6641 -0.9931428571428572 0.2751
vn -0.9239 -0.0 0.3827
vn -0.6641 0.9931428571428572 0.2751
vn -0.4031 1.3074285714285716 0.0
vn -0.4031 -1.3074285714285716 -0.0
vn -0.9273 -0.5348571428571429 -0.0
vn -0.7189 -0.9931428571428572 -0.0
vn -0.9273 0.5348571428571429 -0.0
vn -1.0 0.0 -0.0
vn -0.7189 0.9931428571428572 -0.0
vn -0.6641 -0.9931428571428572 -0.2751
vn -0.8567 0.5348571428571429 -0.3549
vn -0.9239 -0.0 -0.3827
vn -0.6641 0.9931428571428572 -0.2751
vn -0.3724 -1.3074285714285716 -0.1543
vn -0.8567 -0.5348571428571429 -0.3549
vn -0.3724 1.3074285714285716 -0.1543
vn -0.285 -1.3074285714285716 -0.285
vn -0.6557 -0.5348571428571429 -0.6557
vn -0.6557 0.5348571428571429 -0.6557
vn -0.285 1.3074285714285716 -0.285
vn -0.5083 -0.9931428571428572 -0.5083
vn -0.7071 0.0 -0.7071
vn -0.5083 0.9931428571428572 -0.5083
vn -0.3549 -0.5348571428571429 -0.8567
vn -0.3549 0.5348571428571429 -0.8567
vn -0.1543 1.3074285714285716 -0.3724
vn -0.1543 -1.3074285714285716 -0.3724
vn -0.2751 -0.9931428571428572 -0.6641
vn -0.3827 0.0 -0.9239
vn -0.2751 0.9931428571428572 -0.6641
f 235/156/121 129/157/122 123/158/123
f 234/159/124 184/160/125 127/161/126
f 183/162/127 126/163/128 133/164/129
f 236/165/130 131/166/131 132/167/132
f 123/158/123 130/168/133 124/169/134
f 235/156/121 127/161/126 128/170/135
f 236/165/130 133/164/129 126/163/128
f 124/169/134 131/166/131 125/171/136
f 131/166/131 139/172/137 132/167/132
f 129/157/122 137/173/138 130/168/133
f 127/161/126 135/174/139 128/170/135
f 132/167/132 140/175/140 133/164/129
f 131/166/131 137/173/138 138/176/141
f 128/170/135 136/177/142 129/157/122
f 127/161/126 184/178/125 134/179/143
f 183/180/127 133/164/129 140/175/140
f 139/172/137 147/181/144 140/175/140
f 137/173/138 145/182/145 138/176/141
f 135/174/139 143/183/146 136/177/142
f 134/179/143 184/184/125 141/185/147
f 183/186/127 140/175/140 147/181/144
f 139/172/137 145/182/145 146/187/148
f 137/173/138 143/183/146 144/188/149
f 134/179/143 142/189/150 135/174/139
f 145/182/145 151/190/151 152/191/152
f 143/183/146 149/192/153 150/193/154
f 141/185/147 184/194/125 148/195/155
f 183/196/127 147/181/144 154/197/156
f 145/182/145 153/198/157 146/187/148
f 143/183/146 151/190/151 144/188/149
f 141/185/147 149/192/153 142/189/150
f 146/187/148 154/197/156 147/181/144
f 183/199/127 154/197/156 161/200/158
f 152/191/152 160/201/159 153/198/157
f 150/193/154 158/202/160 151/190/151
f 149/192/153 155/203/161 156/204/162
f 154/197/156 160/201/159 161/200/158
f 151/190/151 159/205/163 152/191/152
f 149/192/153 157/206/164 150/193/154
f 148/195/155 184/207/125 155/203/161
f 158/202/160 164/208/165 165/209/166
f 156/204/162 162/210/167 163/211/168
f 161/200/158 167/212/169 168/213/170
f 158/202/160 166/214/171 159/205/163
f 156/204/162 164/208/165 157/206/164
f 155/203/161 184/215/125 162/210/167
f 183/216/127 161/200/158 168/213/170
f 159/205/163 167/212/169 160/201/159
f 167/212/169 175/217/172 168/213/170
f 166/214/171 172/218/173 173/219/174
f 163/211/168 171/220/175 164/208/165
f 162/210/167 184/221/125 169/222/176
f 183/223/127 168/213/170 175/217/172
f 167/212/169 173/219/174 174/224/177
f 164/208/165 172/218/173 165/209/166
f 162/210/167 170/225/178 163/211/168
f 170/225/178 178/226/179 171/220/175
f 169/222/176 184/227/125 176/228/180
f 183/229/127 175/217/172 182/230/181
f 173/219/174 181/231/182 174/224/177
f 172/218/173 178/226/179 179/232/183
f 169/222/176 177/233/184 170/225/178
f 175/217/172 181/231/182 182/230/181
f 172/218/173 180/234/185 173/219/174
f 183/235/127 182/230/181 191/236/186
f 181/231/182 189/237/187 190/238/188
f 178/226/179 188/239/189 179/232/183
f 176/228/180 186/240/190 177/233/184
f 181/231/182 191/236/186 182/230/181
f 179/232/183 189/237/187 180/234/185
f 177/233/184 187/241/191 178/226/179
f 176/228/180 184/242/125 185/243/192
f 185/243/192 193/244/193 186/240/190
f 191/236/186 197/245/194 198/246/195
f 188/239/189 196/247/196 189/237/187
f 186/240/190 194/248/197 187/241/191
f 185/243/192 184/249/125 192/250/198
f 183/251/127 191/236/186 198/246/195
f 190/238/188 196/247/196 197/245/194
f 188/239/189 194/248/197 195/252/199
f 197/245/194 205/253/200 198/246/195
f 195/252/199 203/254/201 196/247/196
f 193/244/193 201/255/202 194/248/197
f 192/250/198 184/256/125 199/257/203
f 183/258/127 198/246/195 205/253/200
f 197/245/194 203/254/201 204/259/204
f 195/252/199 201/255/202 202/260/205
f 192/250/198 200/261/206 193/244/193
f 199/257/203 184/262/125 206/263/207
f 183/264/127 205/253/200 212/265/208
f 204/259/204 210/266/209 211/267/210
f 202/260/205 208/268/211 209/269/212
f 200/261/206 206/263/207 207/270/213
f 204/259/204 212/265/208 205/253/200
f 202/260/205 210/266/209 203/254/201
f 200/261/206 208/268/211 201/255/202
f 210/271/209 218/272/214 211/273/210
f 209/274/212 215/275/215 216/276/216
f 206/277/207 214/278/217 207/279/213
f 211/273/210 219/280/218 212/281/208
f 209/274/212 217/282/219 210/271/209
f 207/279/213 215/275/215 208/283/211
f 206/277/207 184/284/125 213/285/220
f 183/286/127 212/281/208 219/280/218
f 218/272/214 226/287/221 219/280/218
f 216/276/216 224/288/222 217/282/219
f 214/278/217 222/289/223 215/275/215
f 213/285/220 184/290/125 220/291/224
f 183/292/127 219/280/218 226/287/221
f 218/272/214 224/288/222 225/293/225
f 216/276/216 222/289/223 223/294/226
f 213/285/220 221/295/227 214/278/217
f 223/294/226 231/296/228 224/288/222
f 221/295/227 229/297/229 222/289/223
f 220/291/224 184/298/125 227/299/230
f 183/300/127 226/287/221 233/301/231
f 225/293/225 231/296/228 232/302/232
f 223/294/226 229/297/229 230/303/233
f 220/291/224 228/304/234 221/295/227
f 225/293/225 233/301/231 226/287/221
f 183/305/127 233/301/231 126/163/128
f 232/302/232 125/171/136 236/165/130
f 229/297/229 124/169/134 230/303/233
f 228/304/234 234/159/124 235/156/121
f 232/302/232 126/163/128 233/301/231
f 230/303/233 125/171/136 231/296/228
f 228/304/234 123/158/123 229/297/229
f 227/299/230 184/306/125 234/159/124
f 235/156/121 128/170/135 129/157/122
f 236/165/130 125/171/136 131/166/131
f 123/158/123 129/157/122 130/168/133
f 235/156/121 234/159/124 127/161/126
f 236/165/130 132/167/132 133/164/129
f 124/169/134 130/168/133 131/166/131
f 131/166/131 138/176/141 139/172/137
f 129/157/122 136/177/142 137/173/138
f 127/161/126 134/179/143 135/174/139
f 132/167/132 139/172/137 140/175/140
f 131/166/131 130/168/133 137/173/138
f 128/170/135 135/174/139 136/177/142
f 139/172/137 146/187/148 147/181/144
f 137/173/138 144/188/149 145/182/145
f 135/174/139 142/189/150 143/183/146
f 139/172/137 138/176/141 145/182/145
f 137/173/138 136/177/142 143/183/146
f 134/179/143 141/185/147 142/189/150
f 145/182/145 144/188/149 151/190/151
f 143/183/146 142/189/150 149/192/153
f 145/182/145 152/191/152 153/198/157
f 143/183/146 150/193/154 151/190/151
f 141/185/147 148/195/155 149/192/153
f 146/187/148 153/198/157 154/197/156
f 152/191/152 159/205/163 160/201/159
f 150/193/154 157/206/164 158/202/160
f 149/192/153 148/195/155 155/203/161
f 154/197/156 153/198/157 160/201/159
f 151/190/151 158/202/160 159/205/163
f 149/192/153 156/204/162 157/206/164
f 158/202/160 157/206/164 164/208/165
f 156/204/162 155/203/161 162/210/167
f 161/200/158 160/201/159 167/212/169
f 158/202/160 165/209/166 166/214/171
f 156/204/162 163/211/168 164/208/165
f 159/205/163 166/214/171 167/212/169
f 167/212/169 174/224/177 175/217/172
f 166/214/171 165/209/166 172/218/173
f 163/211/168 170/225/178 171/220/175
f 167/212/169 166/214/171 173/219/174
f 164/208/165 171/220/175 172/218/173
f 162/210/167 169/222/176 170/225/178
f 170/225/178 177/233/184 178/226/179
f 173/219/174 180/234/185 181/231/182
f 172/218/173 171/220/175 178/226/179
f 169/222/176 176/228/180 177/233/184
f 175/217/172 174/224/177 181/231/182
f 172/218/173 179/232/183 180/234/185
f 181/231/182 180/234/185 189/237/187
f 178/226/179 187/241/191 188/239/189
f 176/228/180 185/243/192 186/240/190
f 181/231/182 190/238/188 191/236/186
f 179/232/183 188/239/189 189/237/187
f 177/233/184 186/240/190 187/241/191
f 185/243/192 192/250/198 193/244/193
f 191/236/186 190/238/188 197/245/194
f 188/239/189 195/252/199 196/247/196
f 186/240/190 193/244/193 194/248/197
f 190/238/188 189/237/187 196/247/196
f 188/239/189 187/241/191 194/248/197
f 197/245/194 204/259/204 205/253/200
f 195/252/199 202/260/205 203/254/201
f 193/244/193 200/261/206 201/255/202
f 197/245/194 196/247/196 203/254/201
f 195/252/199 194/248/197 201/255/202
f 192/250/198 199/257/203 200/261/206
f 204/259/204 203/254/201 210/266/209
f 202/260/205 201/255/202 208/268/211
f 200/261/206 199/257/203 206/263/207
f 204/259/204 211/267/210 212/265/208
f 202/260/205 209/269/212 210/266/209
f 200/261/206 207/270/213 208/268/211
f 210/271/209 217/282/219 218/272/214
f 209/274/212 208/283/211 215/275/215
f 206/277/207 213/285/220 214/278/217
f 211/273/210 218/272/214 219/280/218
f 209/274/212 216/276/216 217/282/219
f 207/279/213 214/278/217 215/275/215
f 218/272/214 225/293/225 226/287/221
f 216/276/216 223/294/226 224/288/222
f 214/278/217 221/295/227 222/289/223
f 218/272/214 217/282/219 224/288/222
f 216/276/216 215/275/215 222/289/223
f 213/285/220 220/291/224 221/295/227
f 223/294/226 230/303/233 231/296/228
f 221/295/227 228/304/234 229/297/229
f 225/293/225 224/288/222 231/296/228
f 223/294/226 222/289/223 229/297/229
f 220/291/224 227/299/230 228/304/234
f 225/293/225 232/302/232 233/301/231
f 232/302/232 231/296/228 125/171/136
f 229/297/229 123/158/123 124/169/134
f 228/304/234 227/299/230 234/159/124
f 232/302/232 236/165/130 126/163/128
f 230/303/233 124/169/134 125/171/136
f 228/304/234 235/156/121 123/158/123
o lamp
usemtl lamp
v -1.5 2.8 -0.8
v 1.5 2.8 -0.8
v 1.5 3.2 -0.8
v -1.5 3.2 -0.8
v -1.5 2.8 0.8
v 1.5 2.8 0.8
v 1.5 3.2 0.8
v -1.5 3.2 0.8
vt 0 0
vt 1 0
vt 1 1
vt 0 1
vn 0.0 0.0 -1.25
vn 0.0 0.0 1.25
vn -0.6666666666666666 0.0 0.0
vn 0.6666666666666666 0.0 0.0
vn 0.0 -5.0 0.0
vn 0.0 5.0 0.0
f 237/307/235 240/308/235 239/309/235 238/310/235
f 241/307/236 242/308/236 243/309/236 244/310/236
f 237/307/237 241/308/237 244/309/237 240/310/237
f 238/307/238 239/308/238 243/309/238 242/310/238
f 237/307/239 238/308/239 242/309/239 241/310/239
f 240/307/240 244/308/240 243/309/240 239/310/240
